<?xml version="1.0" encoding="utf-8"?>
<!-- Generator: Adobe Illustrator 23.0.1, SVG Export Plug-In . SVG Version: 6.00 Build 0)  -->
<svg version="1.1" xmlns="http://www.w3.org/2000/svg" xmlns:xlink="http://www.w3.org/1999/xlink" x="0px" y="0px"
	 viewBox="0 0 324 342.71" style="enable-background:new 0 0 324 342.71;" xml:space="preserve">
<style type="text/css">
	.st0{fill:#EE7B25;}
	.st1{fill:#010101;}
</style>
<g id="orange_x5F_box">
	<path class="st0" d="M281.06,342.71H42.94C19.23,342.71,0,323.48,0,299.76V42.94C0,19.23,19.23,0,42.94,0h238.11
		C304.77,0,324,19.23,324,42.94v256.82C324,323.48,304.77,342.71,281.06,342.71z"/>
</g>
<g id="shades">
	<path class="st1" d="M321.45,158.35c0,0,3.4,3.92,2.35,8.37c0,0-1.05,5.49-7.59,5.49c0,0-26.16,2.35-45.25,1.57
		c0,0-11.51,0.52-15.69,1.83c0,0,6.54,11.25,5.49,30.6c0,0,0.78,8.37-26.16,18.31c0,0-20.66,10.46-64.6,15.69
		c0,0-55.97,4.97-73.76-11.25c0,0-18.57-22.23-24.85-45.51l-4.71-17.52c0,0-8.37-12.29-10.2-10.2c0,0-3.66-0.52-5.75,6.28
		l-6.54,47.87c0,0-3.66,7.59-11.25,4.18c0,0-22.76-18.31-26.16-41.59c0,0-6.02-27.73-5.75-44.73c0,0-0.52-15.69,3.92-30.86
		l12.55,1.31l3.14,2.09c0,0,20.4,6.8,65.65,13.34c0,0,54.93,10.72,62.25,13.34l7.27,1.57c0,0-44.15,1.05-47.55,1.57
		c0,0-35.05-4.71-37.93-4.71l-23.54-2.35c0,0,4.45,6.28,10.72,9.15c0,0,1.83,5.23,30.6,0.26c0,0,26.68-2.88,37.66-1.57
		c0,0,25.89-4.71,60.16,2.35c0,0,68.53,14.39,73.24,16.48c0,0,20.14,4.45,44.73,6.02L321.45,158.35z"/>
</g>
</svg>
