<?xml version="1.0" encoding="utf-8"?>
<!-- Generator: Adobe Illustrator 23.0.1, SVG Export Plug-In . SVG Version: 6.00 Build 0)  -->
<svg version="1.1" xmlns="http://www.w3.org/2000/svg" xmlns:xlink="http://www.w3.org/1999/xlink" x="0px" y="0px"
	 viewBox="0 0 324 342.71" style="enable-background:new 0 0 324 342.71;" xml:space="preserve">
<style type="text/css">
	.st0{fill:#EE7B25;}
	.st1{fill:#0B0606;}
</style>
<g id="orange_x5F_box">
	<path class="st0" d="M281.06,342.71H42.94C19.23,342.71,0,323.48,0,299.76V42.94C0,19.23,19.23,0,42.94,0h238.11
		C304.77,0,324,19.23,324,42.94v256.82C324,323.48,304.77,342.71,281.06,342.71z"/>
</g>
<g id="hoodie">
	<path class="st1" d="M175.78,24.61c0,0,6.84,4.32,11.06,13.88c0,0,4.12,12.37,5.33,16.09c0,0,2.31,6.34,1.61,12.17
		c0,0-0.24,5.83,0.13,9.35c0,0,1.17,1.11-1.44,7.74c0,0-1.38,3.47-2.82,4.53l2.56,2.26c0,0,5.81,4.22,7.02,4.9
		c0,0,7.02,2.04,7.92,3.09c0,0,1.73,0.68,5.2,0.68c0,0,14.03,5.36,13.2,6.26h1.73c0,0,4.38,5.13,19.16,19.46
		c0,0,22.55,21.95,27.99,29.27c0,0,11.01,12.67,13.73,18.86c0,0,8.22,9.66,17.8,35c0,0,11.47,30.1,12.75,34.17l4.68,18.25
		c0,0,1.28,2.19-3.09,3.7s-10.33,3.7-10.33,3.7s-14.86,5.81-15.54,5.05c0,0-5.66-7.09-6.94-10.71c0,0-6.94-10.79-7.47-11.92
		c0,0-12.75-25.57-14.33-26.7c0,0-3.09-8.3-5.36-8.3c0,0-2.26-2.11-2.41-5.58l-4.75-5.88l-4.98-7.77l0.45,31.53l0.68,26.02
		c0,0,2.19,4.9,1.36,5.58c0,0-0.23,4.75,1.51,9.35c0,0,2.26,7.32,1.21,8.22c0,0-11.84,4.22-41.94,3.09c0,0-38.2,0.83-45.46,1.36
		c0,0-19.33,1.89-21.82,1.28c0,0-9.28,2.04-15.16,1.36l-36.13,0.14l-5.58-0.82c0,0,0.68-16.37,2.04-19.54c0,0-0.91-1.51,0.91-4.07
		l2.87-17.43l1.28-22.4c0,0,1.36-8.52,0.15-11.92c0,0-2.26-19.39-1.73-20.59c0,0,0.75-10.33-1.96-13.13c0,0-5.2,10.86-6.19,11.39
		c0,0-5.43,10.03-9.05,14.33c0,0-7.85,9.58-10.11,9.5c0,0-2.94,9.2-11.01,13.88c0,0-5.05,15.77-8.6,18.63c0,0-6.49,5.66-7.39,7.09
		c0,0-7.62,11.62-9.58,13.35c0,0-0.45,1.89-4.15-0.08l-8.15-3.77c0,0-8.83-5.43-10.03-6.26c0,0-4-2.11-4.68-4.53
		c0,0-1.96-0.91,0-2.56c0,0,8.52-12.07,11.92-19.91c0,0,1.13-4.22,8.3-16.44l11.69-20.37c0,0,20.44-32.59,22.86-35
		c0,0,27.01-31.38,39.9-41.49c0,0,12.82-14.03,38.32-15.69c0,0,5.51-2.19,5.81-5.58l6.11-23.31c0,0,2.94-11.47,2.79-14.63
		c0,0,5.13-10.26,6.26-15.16c0,0,9.63-7.24,10.13-6.94C166,30.67,167.64,21.27,175.78,24.61z"/>
</g>
</svg>
