<?xml version="1.0" encoding="utf-8"?>
<!-- Generator: Adobe Illustrator 23.0.1, SVG Export Plug-In . SVG Version: 6.00 Build 0)  -->
<svg version="1.1" xmlns="http://www.w3.org/2000/svg" xmlns:xlink="http://www.w3.org/1999/xlink" x="0px" y="0px"
	 viewBox="0 0 324 342.71" style="enable-background:new 0 0 324 342.71;" xml:space="preserve">
<style type="text/css">
	.st0{fill:#EE7B25;}
	.st1{fill:#0B0606;}
</style>
<g id="orange_x5F_block">
	<path class="st0" d="M281.06,342.71H42.94C19.23,342.71,0,323.48,0,299.76V42.94C0,19.23,19.23,0,42.94,0h238.11
		C304.77,0,324,19.23,324,42.94v256.82C324,323.48,304.77,342.71,281.06,342.71z"/>
</g>
<g id="jeans">
	<path class="st1" d="M167.32,26.42c0,0,13.65-0.24,14.83-0.63l11.91-1.1c0,0,13.73-4.81,14.67-3.31c0.95,1.5,8.91,33.05,8.91,33.05
		s1.42,6.55,3.16,41.57s3.08,48.91,3.08,48.91s0.55,9.7,0,10.73c0,0-0.38,0.79,0.25,2.13c0,0,1.57,9.39,1.17,10.65
		c0,0,1.26,0.47-0.32,5.52l1.42,5.76c0,0,0.79,2.6,0.47,3.87l3.55,25.64l5.84,56.56l2.68,23.35l0.63,12.7c0,0,1.81,10.73,1.26,12.62
		c0,0-0.63,0.95-7.81,0.95h-14.99c0,0-16.33,0.16-25.08,1.74c0,0-7.26,0.47-8.91,0.95l0.16-4.02c0,0,0.39-6.07,0.63-6.07
		c0,0,0.87-1.74-0.47-3.39c0,0-0.79-1.03-1.03-2.76c0,0-1.5-2.76-0.39-6.63c0,0,0.79-7.1,0.39-8.68c0,0-1.97-6.63-2.6-10.25
		l-2.37-31.79l-1.42-20.43l-1.74-15.07c0,0-2.45-15.78-2.29-16.49c0.16-0.71-0.24-8.52-1.97-14.28l-1.1-5.52
		c0,0-2.21-5.28-3.08-11.91c0,0-0.63-15.15-2.6-18.46l-7.02-26.11l-2.21-6.55c0,0-0.95,5.6-0.55,8.99c0,0,0.24,6.7-2.76,14.36
		l-6.39,26.76c0,0-2.05,10.19-2.13,12.19c0,0-0.79,7.05-0.79,8.15c0,0-1.74,9.86-1.34,13.25l-1.34,16.56l-1.97,23.11
		c0,0-1.26,13.49-2.05,13.57c0,0-0.08,16.96-1.66,20.75c0,0-3.16,16.8-3.87,17.27c0,0-1.1,2.52-0.95,4.81c0,0,0.47,5.36-1.42,7.26
		c0,0-1.34,2.37-0.79,4.97c0,0,0,4.34-1.97,6.55c0,0,0.08,5.13,1.74,8.91l-0.63,2.52h-5.44c0,0-11.91-2.29-13.49-2.05
		c0,0-5.76-1.26-10.25-0.55c0,0-14.2-0.87-14.99-0.55l-8.83,0.08c0,0-0.87-1.58,1.03-5.13c0,0-0.39-6.07,0.16-7.34l1.89-25.4
		c0,0,1.58-21.69,2.29-25.48s1.81-16.49,1.81-16.49s2.05-26.5,2.76-28.24l1.66-23.59c0,0,2.13-19.72,2.05-21.53
		c-0.08-1.81,1.97-49.77,1.97-49.77l2.68-26.42c0,0,1.34-9.39,0.87-12.86c0,0,1.26-13.65,1.58-14.04c0,0,1.74-8.91,1.74-9.54
		l1.5-4.5c0,0-0.08-8.6,4.18-11.67l0.16-3.63l1.03-2.29l0.08-5.6c0,0,3.63-0.95,15.07,3.47l16.96,0.87c0,0,14.44,0.32,26.19-0.79
		L167.32,26.42z"/>
</g>
</svg>
