<?xml version="1.0" encoding="utf-8"?>
<!-- Generator: Adobe Illustrator 23.0.1, SVG Export Plug-In . SVG Version: 6.00 Build 0)  -->
<svg version="1.1" xmlns="http://www.w3.org/2000/svg" xmlns:xlink="http://www.w3.org/1999/xlink" x="0px" y="0px"
	 viewBox="0 0 324 342.71" style="enable-background:new 0 0 324 342.71;" xml:space="preserve">
<style type="text/css">
	.st0{fill:#EE7B25;}
	.st1{fill:#010101;}
</style>
<g id="orange_x5F_box">
	<path class="st0" d="M281.06,342.71H42.94C19.23,342.71,0,323.48,0,299.76V42.94C0,19.23,19.23,0,42.94,0h238.11
		C304.77,0,324,19.23,324,42.94v256.82C324,323.48,304.77,342.71,281.06,342.71z"/>
</g>
<g id="long-sleeve">
	<path class="st1" d="M181.83,75.54c0,0,19.67,6.18,52.57,37.08c0,0,11.49,9.26,20.19,21.21c0,0,21.93,33.54,31.68,46.89
		c0,0,21.7,28.78,27.39,34.7l-20.66,15.78c0,0-14.85-17.99-18.34-20.31L264,199.05c0,0-10.68-13.35-10.91-19.85
		c0,0-9.63-8.7-9.63-10.44c0,0-4.99-6.85-14.51-16.36c0,0-4.53-12.19-6.15-13.81c0,0,0.58-5.45-2.09-6.85c0,0-3.25,5.92-4.99,6.96
		c0,0-0.46,12.42-2.44,15.55c0,0,0.58,30.75-0.93,37.25c0,0,0,9.05-1.04,10.68c0,0-6.85,30.29-6.62,32.73c0,0-11.72-1.39-11.49,1.04
		l-2.44,1.28c0,0-1.97,7.2-6.85,7.66c0,0-8.47,1.97-14.39,2.21c0,0-18.34,0.58-22.4,0c0,0-5.22,1.51-14.39-0.46
		c0,0-2.21-1.28-5.34-1.39c0,0-4.64-0.93-6.03-0.7c0,0-4.18-0.35-5.92-3.48c0,0-3.13-3.95-4.76-4.18c-1.62-0.23-8.36,0.46-8.36,0.46
		s-2.79,0.35-4.29-1.86c0,0-0.58-15.78,1.04-24.37c0,0-2.67-8.36-2.09-19.73l0.81-22.63l1.74-27.5c0,0,1.28-7.78,1.51-8.24
		c0,0-2.25-0.7-4.14-3.25c0,0-3.17,5.45-3.17,6.38c0,0-7.31,10.1-9.52,12.53c0,0-4.06,10.68-6.5,11.26c0,0-7.08,9.4-9.52,12.42
		s-10.1,8.94-10.1,8.94s-6.73,3.6-9.17,5.57c0,0-3.25,0.12-2.67,1.97c0,0-5.92,11.61-7.31,12.3c0,0-7.31,12.3-10.56,15.2
		L8.22,202.53c0,0,8.01-15.55,11.61-18.22c0,0,12.42-18.45,14.27-19.96l12.3-14.39c0,0,12.65-16.94,20.89-24.49
		c0,0,17.99-24.6,35.63-33.66c0,0,15.78-8.82,18.34-9.52l17.76-5.22c0,0,3.02-2.32,4.18-2.9c0,0,4.18,4.18,20.89,4.76
		C164.07,78.93,173.36,78.99,181.83,75.54z"/>
</g>
</svg>
