<?xml version="1.0" encoding="utf-8"?>
<!-- Generator: Adobe Illustrator 23.0.1, SVG Export Plug-In . SVG Version: 6.00 Build 0)  -->
<svg version="1.1" xmlns="http://www.w3.org/2000/svg" xmlns:xlink="http://www.w3.org/1999/xlink" x="0px" y="0px"
	 viewBox="0 0 324 342.71" style="enable-background:new 0 0 324 342.71;" xml:space="preserve">
<style type="text/css">
	.st0{fill:#EE7B25;}
	.st1{fill:#010101;}
</style>
<g id="orange_x5F_box">
	<path class="st0" d="M281.06,342.71H42.94C19.23,342.71,0,323.48,0,299.76V42.94C0,19.23,19.23,0,42.94,0h238.11
		C304.77,0,324,19.23,324,42.94v256.82C324,323.48,304.77,342.71,281.06,342.71z"/>
</g>
<g id="headphones">
	<path class="st1" d="M164.51,6.12c0,0,45.35,2.83,62.55,14.74c0,0,31.18,14.36,48.76,35.53c0,0,35.15,40.25,37.04,86.17
		c0,0,4.72,71.06,2.46,78.05c0,0-9.07,7.18-15.5,5.48c0,0,0.57,3.78-1.32,8.31c0,0-34.39,78.05-44.41,88.25
		c0,0-6.05,3.4-40.82,12.28c0,0-7.18-1.13-9.26-2.46c0,0-16.82-0.38-29.67-12.47c0,0-9.26-14.74,1.51-30.99
		c0,0,37.04-85.04,60.47-113.01c0,0,11.91-18.33,35.34,2.46l5.1,4.91l1.7,3.21l6.43,2.65c0,0,0,6.24,5.48,8.5
		c0,0,5.48,2.65-0.76-14.36c0,0-2.65-23.43-2.46-26.83l-4.35-23.06c0,0-32.13-50.46-52.16-62.93c0,0-20.03-19.28-62.74-24.94
		c0,0-44.98-8.13-93.73,42.14c0,0-23.81,25.51-34.2,53.86c0,0-4.16,20.22-3.59,28.91l-1.51,32.69c0,0,1.13,2.46,4.54-7.56l6.8-3.4
		c0,0,8.31-15.31,26.08-16.63c0,0,8.88-2.71,23.43,15.37l49.32,80.25l13.23,28.72c0,0,5.48,17.76-6.43,30.43
		c0,0-6.43,9.26-26.27,4.54c0,0-2.65,4.16-7.37,3.4l-39.69-7.56c0,0-27.78-21.54-47.06-69.54c0,0-7.94-13.98-5.67-26.83
		c0,0-6.24,2.65-14.93-4.91c0,0-3.4-50.46-3.02-65.39c0,0-4.72-49.32,34.58-102.99c0,0,23.62-29.1,65.39-45.92
		C107.82,15.19,140.7,4.98,164.51,6.12z"/>
</g>
</svg>
