<?xml version="1.0" encoding="utf-8"?>
<!-- Generator: Adobe Illustrator 23.0.1, SVG Export Plug-In . SVG Version: 6.00 Build 0)  -->
<svg version="1.1" xmlns="http://www.w3.org/2000/svg" xmlns:xlink="http://www.w3.org/1999/xlink" x="0px" y="0px"
	 viewBox="0 0 324 342.71" style="enable-background:new 0 0 324 342.71;" xml:space="preserve">
<style type="text/css">
	.st0{fill:#EE7B25;}
	.st1{fill:#0B0606;}
</style>
<g id="orange_x5F_box">
	<path class="st0" d="M281.06,342.71H42.94C19.23,342.71,0,323.48,0,299.76V42.94C0,19.23,19.23,0,42.94,0h238.11
		C304.77,0,324,19.23,324,42.94v256.82C324,323.48,304.77,342.71,281.06,342.71z"/>
</g>
<g id="shirt">
	<path class="st1" d="M163.16,37.73c0,0,8.1,0.13,14.3-2.43c0,0,4.32,0.13,10.79-4.05l4.59-5.13l10.52,3.64l5.8,1.21
		c0,0,2.83,3.37,4.05,3.51c0,0,2.02-0.81,2.56-0.81c0.54,0,24.96,7.15,24.96,7.15l5.4,4.45c0,0,7.56,2.29,8.5,4.05
		c0.94,1.75,5.13,5.26,5.13,5.26l10.93,5.26l6.21,4.18c0,0,7.42,2.7,7.83,3.37c0.4,0.67,18.49,9.99,18.49,9.99
		s-14.84,27.12-21.32,31.03l-12.01,15.38c0,0-7.29-2.29-9.45-4.32c-2.16-2.02-7.02-2.16-7.02-2.16l-4.05-0.67
		c0,0,7.29,10.39,3.51,21.59c0,0,3.78,26.85,1.21,43.18l-1.75,26.99c0,0,2.97,5.26,0.4,24.83l-1.35,9.18c0,0,5.94,19.43,7.02,34.14
		c0,0,0.27,19.43,0.27,21.72c0,0-1.89,3.24-10.39,3.37c-8.5,0.13-12.68-1.35-12.68-1.35s-6.07-1.48-9.45-0.4
		c0,0-0.81,2.83-5.13,3.51l-28.74,2.16c0,0-37.11,2.16-39.4-3.1c0,0-14.03-1.08-21.18-0.13c0,0-53.84,7.15-66.12,5.13l-15.79-2.02
		c0,0,2.97-15.52,5.13-18.22c0,0-1.35-2.7,1.89-31.98l3.51-57.62c0,0,0.4-2.02,2.02-7.15c0,0,0-18.35,0.81-20.51
		c0,0,2.43-36.97,6.07-45.34c0,0-2.97-3.1-6.88-4.72c0,0-4.59,3.1-7.42,3.91c0,0-7.96,2.16-11.6,0.54l-10.79-34
		c0,0,3.37-2.16-4.18-6.48l-4.86-8.91c0,0,48.44-17.14,52.89-25.77c0,0,15.38-8.37,27.8-8.77c0,0,13.63-4.45,15.38-4.45
		s5.13-3.24,5.13-3.24l7.29-1.35c0,0,10.2,8.64,25.37,7.02C157.36,38.4,161.81,35.84,163.16,37.73z"/>
</g>
</svg>
