<?xml version="1.0" encoding="utf-8"?>
<!-- Generator: Adobe Illustrator 23.0.1, SVG Export Plug-In . SVG Version: 6.00 Build 0)  -->
<svg version="1.1" xmlns="http://www.w3.org/2000/svg" xmlns:xlink="http://www.w3.org/1999/xlink" x="0px" y="0px"
	 viewBox="0 0 324 342.71" style="enable-background:new 0 0 324 342.71;" xml:space="preserve">
<style type="text/css">
	.st0{fill:#EE7B25;}
	.st1{fill:#010101;}
</style>
<g id="orange_x5F_box">
	<path class="st0" d="M281.06,342.71H42.94C19.23,342.71,0,323.48,0,299.76V42.94C0,19.23,19.23,0,42.94,0h238.11
		C304.77,0,324,19.23,324,42.94v256.82C324,323.48,304.77,342.71,281.06,342.71z"/>
</g>
<g id="gloves">
	<path id="right" class="st1" d="M228.17,53.13c0,0,7.85,2.34,7.18,25.22c0,0,0.67,28.06,2.34,35.75l1.34,4.68
		c0,0,2.67-36.58,5.68-44.6c0,0,3.01-22.38,14.2-27.56c0,0,10.02-3.17,12.19,0c0,0,4.01,5.35,0,17.04c0,0-3.84,8.35-1.84,22.88
		c0,0-2.84,19.21-2.84,21.05c0,0,12.03-38.09,22.72-50.61c0,0,10.36-6.01,12.86,6.85c0,0-0.67,6.85-5.51,25.72
		c0,0-4.18,21.21-4.18,27.23c0,0-0.67,3.34-0.33,6.85c0,0,3.51-40.42,16.37-44.6c0,0,11.69-1.5,11.69,16.37
		c0,0,0.67,17.21-7.85,44.93c0,0-2.17,40.76-5.68,59.97c0,0-5.85,32.91-3.67,43.93l2.17,49.44c0,0,2.17,7.02-27.39,0
		c0,0-58.97-6.68-64.48-6.68c0,0-7.35,1-8.02-3.67c0,0,0-29.23,2.67-34.41c0,0-2.67-29.07-2.67-32.24v-19.71
		c0,0-21.88-22.05-36.58-28.73c0,0-9.19-12.53,4.51-18.71c0,0,9.69-5.68,25.72,1.5c0,0,2.67,2.17,9.69,1.17c0,0,2-28.4,0.5-65.31
		l0.84-20.71c0,0-5.68-3.17,11.19-13.36C220.99,52.8,226.13,51.65,228.17,53.13z"/>
	<path id="left" class="st1" d="M123.94,56.98c0,0,15.37,7.02,6.51,14.53l-3.17,38.25c0,0-6.18,23.33-4.18,31.54
		c0,0-1.47,13.23-0.4,15.73c0,0,21.11-17.21,30.63-19.88c0,0,12.03-6.18,15.2,5.35c0,0,6.68,9.21-9.52,22.31
		c0,0-12.86,19.45-33.74,36.32c0,0-0.84,45.77-2.17,48.11c0,0,2.67-5.18,0.5,30.07c0,0,1,11.69-5.51,10.69c0,0-50.45-1.34-60.3,0.84
		c0,0-26.56,1.84-30.07,0c0,0-1.84,2,0-27.73c0,0,3.34-6.18,0.67-20.21c0,0-4.18-37.08-3.17-40.59c0,0-0.5-17.04-1.67-21.21
		c0,0-3.01-26.89-2.67-35.91c0,0-0.5-14.2-2.84-17.04c0,0-9.19-34.41-3.67-49.11c0,0,9.19-12.53,16.7,3.01
		c0,0,10.69,32.91,11.53,37.25l1,4.68l1.5-51.28c0,0-1.84-20.05,14.53-22.72c0,0,8.52,0.33,8.69,10.02l1.5,25.22
		c0,0-0.33,21.05-0.5,26.73c-0.17,5.68,0.5,6.51,0.5,6.51s3.01-3.84,3.01-37.58c0,0,0.67-21.05,4.51-28.4c0,0,9.86-9.19,16.37-5.35
		c0,0,8.19,2.84,6.51,14.7l2,23.89c0,0-0.84,18.04-4.18,32.91c0,0,4.84-47.77,12.53-55.96C110.57,62.65,118.19,53.29,123.94,56.98z"
		/>
</g>
</svg>
