<?xml version="1.0" encoding="utf-8"?>
<!-- Generator: Adobe Illustrator 23.0.1, SVG Export Plug-In . SVG Version: 6.00 Build 0)  -->
<svg version="1.1" xmlns="http://www.w3.org/2000/svg" xmlns:xlink="http://www.w3.org/1999/xlink" x="0px" y="0px"
	 viewBox="0 0 324 342.71" style="enable-background:new 0 0 324 342.71;" xml:space="preserve">
<style type="text/css">
	.st0{fill:#EE7B25;}
	.st1{fill:#0E0708;}
</style>
<g id="orange_x5F_box">
	<path class="st0" d="M281.06,342.71H42.94C19.23,342.71,0,323.48,0,299.76V42.94C0,19.23,19.23,0,42.94,0h238.11
		C304.77,0,324,19.23,324,42.94v256.82C324,323.48,304.77,342.71,281.06,342.71z"/>
</g>
<g id="socks">
	<path class="st1" d="M234.46,54.48c0,0,50.99,10.2,65.19,11.41l2.67,2.79c0,0-3.4,1.46-3.28,9.71c0,0-9.23,49.9-12.14,54.75
		c0,0-2.43,8.38-1.82,15.18c0,0-2.91,4.86-0.24,11.78c0,0,2.31,18.57-0.73,27.8c0,0-6.19,33.87-23.07,46.5
		c0,0-14.08,9.23-19.55,8.13l-5.22-0.61c0,0-16.63,9.59-31.08,20.27l-19.55,15.54c0,0-17.85,16.63-23.31,18.7
		c0,0-21.49,11.17-30.11,12.14c0,0-20.64,5.83-26.22,0c0,0-2.31-23.19-3.16-24.04c0,0-0.97-8.62,5.83-17.36
		c0,0,6.19-11.29,12.02-15.42c0,0,23.67-19.42,40.91-39.7l13.35-14.33c0,0,7.65,0,12.75-8.98c0,0,11.29-10.93,14.33-19.67l3.04-5.22
		l14.45-19.42c0,0,2.31-3.64,1.21-8.74c0,0,0-2.19,1.21-6.07c0,0-0.61-9.83-0.49-12.5l0.85-5.83c0,0-2.67,0.49-4.01-0.61
		c0,0,2.67-9.35,4.61-14.08c0,0,1.46-0.61,1.7-2.06c0,0-0.85-3.76,1.7-10.8l4.61-21.49C230.94,62.25,232.15,56.67,234.46,54.48z"/>
	<path class="st1" d="M158.82,23.28c0,0,54.63,3.88,65.92,8.26c0,0-1.09,11.29-3.52,16.27c0,0-0.12,14.57-1.7,21.97
		c0,0-4.01,17.85-8.13,28.04c0,0-4.37,12.14-5.34,13.11c0,0,5.34,15.18,4.01,19.55c0,0-2.74,29.53-4.98,33.39
		c0,0-4.25,12.14-17.36,24.89c0,0-4.98,8.74-12.75,8.98h-2.43c0,0-2.31,6.68-15.05,7.04c0,0-10.8,5.46-15.18,9.83
		c0,0-20.52,15.42-33.02,28.17c0,0-13.84,12.26-14.81,12.99c0,0-17.24,12.5-19.18,13.23c0,0-4.98,6.07-13.96,11.17
		c0,0-12.63,8.62-22.34,0c0,0-8.01-7.28-10.68-13.6c0,0-4.13-9.11-4.98-14.08c0,0,0.49-10.56,2.19-13.6c0,0,1.21-6.19,9.47-11.05
		c0,0,0.24-3.28,5.22-3.64c0,0,3.16-1.46,9.35-11.53c0,0,12.99-18.33,29.02-31.32c0,0,19.79-18.94,26.83-25.13
		c0,0,17.24-13.6,34.72-32.78c0,0,9.83-12.38,9.59-15.54c0,0,2.67-6.92,0.36-14.69c0,0-0.97-11.9,0.97-18.7
		c0,0,2.19-15.54,3.76-17.36L158.82,23.28z"/>
</g>
</svg>
