<?xml version="1.0" encoding="utf-8"?>
<!-- Generator: Adobe Illustrator 23.0.1, SVG Export Plug-In . SVG Version: 6.00 Build 0)  -->
<svg version="1.1" xmlns="http://www.w3.org/2000/svg" xmlns:xlink="http://www.w3.org/1999/xlink" x="0px" y="0px"
	 viewBox="0 0 324 342.71" style="enable-background:new 0 0 324 342.71;" xml:space="preserve">
<style type="text/css">
	.st0{fill:#EE7B25;}
	.st1{fill:#0B0606;}
</style>
<g id="orange_x5F_box">
	<path class="st0" d="M281.06,342.71H42.94C19.23,342.71,0,323.48,0,299.76V42.94C0,19.23,19.23,0,42.94,0h238.11
		C304.77,0,324,19.23,324,42.94v256.82C324,323.48,304.77,342.71,281.06,342.71z"/>
</g>
<g id="hat">
	<path class="st1" d="M183.81,57.18c0,0,5.09-0.24,8.97,2.18c0,0,15.39-0.48,20.96,2.18c0,0,26.66,10.18,42.65,25.08
		c0,0,13.69,10.06,16.36,13.33c0,0,24.72,32.47,27.51,45.32c0,0,5.09,3.03,1.33,42.41c0,0-0.85,11.15-6.54,13.81
		c0,0-70.28,34.9-84.7,39.14c0,0-24.84,18.78-78.4,15.87c0,0-73.31-8.48-110.39-34.29c0,0-17.57-6.79-6.66-21.45
		c0,0,11.51-9.33,21.45-10.78c0,0,53.56-14.66,56.1-15.27c0,0-2.3-60.83,3.64-73.55c0,0,4.12-28.6,55.01-35.99
		c0,0,22.66-2.54,25.57-4.73C176.66,60.45,179.99,56.87,183.81,57.18z"/>
</g>
</svg>
